<svg width="25" height="24" viewBox="0 0 25 24" fill="none" xmlns="http://www.w3.org/2000/svg">
<path d="M2.5 8.8608V16.8C2.5 17.6487 2.85119 18.4626 3.47631 19.0627C4.10143 19.6629 4.94928 20 5.83333 20H19.1667C20.0507 20 20.8986 19.6629 21.5237 19.0627C22.1488 18.4626 22.5 17.6487 22.5 16.8V7.2C22.5 6.35131 22.1488 5.53737 21.5237 4.93726C20.8986 4.33714 20.0507 4 19.1667 4H5.83333C4.94928 4 4.10143 4.33714 3.47631 4.93726C2.85119 5.53737 2.5 6.35131 2.5 7.2V8.8608ZM5.83333 5.6H19.1667C19.6087 5.6 20.0326 5.76857 20.3452 6.06863C20.6577 6.36869 20.8333 6.77565 20.8333 7.2V8.384L12.5 12.6912L4.16667 8.384V7.2C4.16667 6.77565 4.34226 6.36869 4.65482 6.06863C4.96738 5.76857 5.39131 5.6 5.83333 5.6ZM4.16667 10.2016L12.105 14.304C12.2264 14.3667 12.3621 14.3996 12.5 14.3996C12.6379 14.3996 12.7736 14.3667 12.895 14.304L20.8333 10.2016V16.8C20.8333 17.2243 20.6577 17.6313 20.3452 17.9314C20.0326 18.2314 19.6087 18.4 19.1667 18.4H5.83333C5.39131 18.4 4.96738 18.2314 4.65482 17.9314C4.34226 17.6313 4.16667 17.2243 4.16667 16.8V10.2016Z" fill="#CACACA" fill-opacity="0.4"/>
</svg>
