<svg width="25" height="25" viewBox="0 0 25 25" fill="none" xmlns="http://www.w3.org/2000/svg">
<path d="M20.1931 22.5H20.0624C4.95258 21.6308 2.80721 8.87692 2.50732 4.98462C2.48316 4.68198 2.51893 4.37756 2.61257 4.08878C2.70622 3.8 2.85591 3.53254 3.05306 3.30173C3.25021 3.07092 3.49095 2.8813 3.76149 2.74372C4.03202 2.60615 4.32703 2.52332 4.62962 2.5H8.86652C9.17453 2.4997 9.47553 2.59193 9.73054 2.76474C9.98554 2.93755 10.1828 3.18298 10.2968 3.46923L11.4656 6.34615C11.5781 6.62581 11.606 6.93237 11.5459 7.22776C11.4857 7.52316 11.3401 7.79436 11.1272 8.00769L9.48937 9.66154C9.74521 11.116 10.4415 12.4567 11.4839 13.5023C12.5264 14.5479 13.8648 15.2479 15.318 15.5077L16.9866 13.8538C17.2031 13.6432 17.4767 13.501 17.7735 13.4449C18.0702 13.3888 18.3769 13.4213 18.6552 13.5385L21.5542 14.7C21.836 14.8176 22.0764 15.0165 22.2449 15.2713C22.4133 15.5261 22.5021 15.8253 22.5 16.1308V20.1923C22.5 20.8043 22.2569 21.3913 21.8243 21.8241C21.3917 22.2569 20.8049 22.5 20.1931 22.5ZM4.81417 4.03846C4.61023 4.03846 4.41464 4.11951 4.27044 4.26376C4.12623 4.40802 4.04522 4.60368 4.04522 4.80769V4.86923C4.39894 9.42308 6.66733 20.1923 20.147 20.9615C20.248 20.9678 20.3493 20.954 20.445 20.921C20.5406 20.888 20.6289 20.8365 20.7046 20.7693C20.7803 20.7021 20.8421 20.6207 20.8862 20.5296C20.9304 20.4385 20.9562 20.3395 20.9621 20.2385V17.7147C20.9621 16.758 20.3799 15.8975 19.4918 15.5417C18.6247 15.1942 17.634 15.3956 16.9713 16.0539L16.1201 16.8994C15.9536 17.0649 15.7201 17.1445 15.4872 17.1154C8.79732 16.2769 7.88996 9.58462 7.88996 9.51539L7.84382 9.14615L8.95028 8.02759C9.60473 7.36599 9.80539 6.37968 9.46146 5.51497C9.10691 4.62353 8.24456 4.03846 7.28521 4.03846H4.81417Z" fill="#CACACA" fill-opacity="0.4"/>
</svg>
