<svg width="25" height="25" viewBox="0 0 25 25" fill="none" xmlns="http://www.w3.org/2000/svg">
<path d="M22.6463 20.7031C21.1886 18.1919 18.8552 16.3072 16.0936 15.4102C17.4173 14.623 18.4459 13.423 19.0215 11.9946C19.5971 10.5661 19.6878 8.98818 19.2796 7.50318C18.8715 6.01819 17.987 4.70828 16.7622 3.77468C15.5374 2.84109 14.0399 2.33545 12.4998 2.33545C10.9598 2.33545 9.46228 2.84109 8.23745 3.77468C7.01262 4.70828 6.12819 6.01819 5.72002 7.50318C5.31185 8.98818 5.40252 10.5661 5.97811 11.9946C6.5537 13.423 7.58236 14.623 8.90607 15.4102C6.14445 16.3072 3.81109 18.1919 2.35334 20.7031C2.2922 20.7918 2.25006 20.8922 2.22958 20.998C2.2091 21.1038 2.21071 21.2126 2.23433 21.3177C2.25794 21.4229 2.30304 21.522 2.36678 21.6088C2.43053 21.6956 2.51156 21.7684 2.60476 21.8224C2.69797 21.8764 2.80134 21.9106 2.90839 21.9228C3.01543 21.9349 3.12384 21.9248 3.22679 21.8931C3.32974 21.8613 3.42501 21.8086 3.50662 21.7383C3.58823 21.668 3.65441 21.5815 3.701 21.4844C4.59395 19.9414 5.87696 18.6603 7.42132 17.7698C8.96568 16.8792 10.7171 16.4104 12.4998 16.4104C14.2826 16.4104 16.034 16.8792 17.5783 17.7698C19.1227 18.6603 20.4057 19.9414 21.2987 21.4844C21.3452 21.5815 21.4114 21.668 21.493 21.7383C21.5746 21.8086 21.6699 21.8613 21.7729 21.8931C21.8758 21.9248 21.9842 21.9349 22.0913 21.9228C22.1983 21.9106 22.3017 21.8764 22.3949 21.8224C22.4881 21.7684 22.5691 21.6956 22.6329 21.6088C22.6966 21.522 22.7417 21.4229 22.7653 21.3177C22.7889 21.2126 22.7906 21.1038 22.7701 20.998C22.7496 20.8922 22.7075 20.7918 22.6463 20.7031V20.7031ZM7.03107 9.37501C7.03107 8.29339 7.35181 7.23606 7.95273 6.33673C8.55364 5.4374 9.40774 4.73646 10.407 4.32254C11.4063 3.90862 12.5059 3.80032 13.5667 4.01134C14.6276 4.22235 15.602 4.7432 16.3668 5.50802C17.1316 6.27283 17.6525 7.24727 17.8635 8.30811C18.0745 9.36894 17.9662 10.4685 17.5523 11.4678C17.1384 12.4671 16.4374 13.3212 15.5381 13.9221C14.6388 14.523 13.5814 14.8438 12.4998 14.8438C11.0494 14.8438 9.65842 14.2676 8.63284 13.242C7.60725 12.2164 7.03107 10.8254 7.03107 9.37501Z" fill="#CACACA" fill-opacity="0.4"/>
</svg>
